<svg width="42" height="36" viewBox="0 0 42 36" fill="none" xmlns="http://www.w3.org/2000/svg">
<path d="M8.4 19.8916C3.78 19.8916 0 23.4721 0 27.8482C0 32.2244 3.78 35.8049 8.4 35.8049C13.02 35.8049 16.8 32.2244 16.8 27.8482C16.8 23.4721 13.02 19.8916 8.4 19.8916ZM21 0C16.38 0 12.6 3.58049 12.6 7.95664C12.6 12.3328 16.38 15.9133 21 15.9133C25.62 15.9133 29.4 12.3328 29.4 7.95664C29.4 3.58049 25.62 0 21 0ZM33.6 19.8916C28.98 19.8916 25.2 23.4721 25.2 27.8482C25.2 32.2244 28.98 35.8049 33.6 35.8049C38.22 35.8049 42 32.2244 42 27.8482C42 23.4721 38.22 19.8916 33.6 19.8916Z" fill="#0057A8"/>
</svg>
